<?xml version="1.0" encoding="UTF-8" standalone="no"?>
<!-- Created with Inkscape (http://www.inkscape.org/) -->

<svg
   xmlns:dc="http://purl.org/dc/elements/1.1/"
   xmlns:cc="http://creativecommons.org/ns#"
   xmlns:rdf="http://www.w3.org/1999/02/22-rdf-syntax-ns#"
   xmlns:svg="http://www.w3.org/2000/svg"
   xmlns="http://www.w3.org/2000/svg"
   xmlns:sodipodi="http://sodipodi.sourceforge.net/DTD/sodipodi-0.dtd"
   xmlns:inkscape="http://www.inkscape.org/namespaces/inkscape"
   width="74mm"
   height="52mm"
   viewBox="0 0 74 52"
   version="1.1"
   id="SVGRoot"
   inkscape:version="0.92.3 (3ce5693, 2018-03-11)"
   sodipodi:docname="logo.svg">
  <sodipodi:namedview
     id="base"
     pagecolor="#ffffff"
     bordercolor="#666666"
     borderopacity="1.0"
     inkscape:pageopacity="0.0"
     inkscape:pageshadow="2"
     inkscape:zoom="2"
     inkscape:cx="67"
     inkscape:cy="98"
     inkscape:document-units="mm"
     inkscape:current-layer="layer1"
     showgrid="false"
     inkscape:window-width="1853"
     inkscape:window-height="1025"
     inkscape:window-x="67"
     inkscape:window-y="27"
     inkscape:window-maximized="1" />
  <defs
     id="defs3724" />
  <metadata
     id="metadata3727">
    <rdf:RDF>
      <cc:Work
         rdf:about="">
        <dc:format>image/svg+xml</dc:format>
        <dc:type
           rdf:resource="http://purl.org/dc/dcmitype/StillImage" />
        <dc:title></dc:title>
      </cc:Work>
    </rdf:RDF>
  </metadata>
  <g
     id="layer1"
     inkscape:groupmode="layer"
     inkscape:label="Layer 1">
    <g
       transform="matrix(0.19535874,0,0,0.19535874,-11.109138,-147.93828)"
       id="layer10">
      <path
         d="m 280.84,781.24 c 1.33,-0.01 3.4,0.25 4.25,0.56 2.25,1.51 2.85,3.6 2.82,5.91 1.86,-0.02 114.48,-1.35 140.61,-0.53 -0.06,1.88 -0.57,-1.32 -0.19,1.02 -18.12,-0.45 -56.64,-1.29 -140.68,2.37 -0.17,1.28 -0.37,2.55 -0.49,3.8 -0.34,1.56 -0.41,1.66 -2.82,4.18 -0.79,0.82 -1.23,1.15 -1.69,1.28 -0.86,0.23 -2.36,0.09 -3.13,-0.3 -0.6,-0.32 -0.76,-0.34 -2.55,-0.19 -1.05,0.08 -2.88,0.17 -4.11,0.15 -1.76,-0.03 -2.34,0 -2.7,0.19 -0.26,0.13 -0.84,0.38 -1.28,0.52 -1.16,0.38 -2.2,1.13 -3.95,2.86 -1.34,1.32 -1.65,1.56 -2.49,1.85 -0.67,0.22 -1.24,0.53 -1.8,1.05 -0.46,0.41 -1.14,0.89 -1.51,1.05 -0.37,0.16 -0.81,0.45 -0.98,0.64 -0.17,0.19 -0.63,0.49 -1.05,0.68 -0.42,0.19 -1.04,0.54 -1.36,0.75 -0.31,0.22 -0.92,0.46 -1.35,0.57 -0.93,0.22 -2.29,1.37 -5.08,4.25 -1.24,1.28 -2.12,1.87 -4.06,2.75 -0.84,0.37 -1.77,0.87 -2.07,1.09 -0.93,0.68 -6.25,4.04 -7.3,4.62 -0.19,0.11 -0.7,0.39 -1.17,0.61 -0.94,0.42 -2.52,1.37 -3.46,2.07 -0.34,0.25 -0.84,0.53 -1.09,0.64 -0.25,0.1 -0.75,0.37 -1.09,0.6 -0.34,0.22 -1.92,1.06 -3.5,1.84 -1.59,0.79 -2.94,1.52 -3.05,1.66 -0.11,0.13 -1.21,0.73 -2.41,1.31 -1.35,0.66 -2.43,1.28 -2.89,1.7 -0.41,0.36 -0.99,0.79 -1.28,0.94 -0.3,0.15 -0.83,0.54 -1.17,0.86 -0.34,0.33 -1.11,0.86 -1.73,1.21 -0.62,0.35 -1.52,0.94 -1.99,1.28 -0.48,0.33 -1.22,0.81 -1.62,1.09 -1.48,1 -3.58,2.7 -4.03,3.23 -0.25,0.3 -0.82,1.15 -1.24,1.88 -0.42,0.74 -1.05,1.64 -1.39,2.04 -0.99,1.11 -2.03,2.69 -2.52,3.76 -0.29,0.61 -0.78,1.28 -1.32,1.8 -0.47,0.47 -0.87,0.89 -0.87,0.95 0,0.05 -0.37,0.53 -0.86,1.09 -0.49,0.55 -1.27,1.68 -1.73,2.52 -1.41,2.56 -2.2,4.12 -2.41,4.7 -0.11,0.31 -0.36,0.84 -0.56,1.17 -0.2,0.32 -0.51,0.96 -0.72,1.43 -0.21,0.46 -0.63,1.27 -0.94,1.8 -0.31,0.54 -0.62,1.25 -0.68,1.55 -0.05,0.3 -0.35,0.99 -0.64,1.54 -0.29,0.55 -0.52,1.09 -0.52,1.24 0,0.15 -0.21,0.67 -0.45,1.13 -0.25,0.46 -0.55,1.13 -0.64,1.5 -0.1,0.38 -0.49,1.34 -0.91,2.11 -0.68,1.26 -0.79,1.49 -0.79,2.37 v 0.98 l -1.88,1.81 c -1.04,0.99 -2.74,2.44 -3.8,3.19 -1.06,0.76 -2.05,1.51 -2.22,1.7 -0.16,0.18 -0.57,0.48 -0.86,0.64 -0.3,0.15 -0.92,0.57 -1.4,0.94 -0.48,0.37 -1.07,0.79 -1.31,0.94 -0.81,0.49 -2.27,1.73 -2.6,2.22 -0.18,0.26 -0.39,0.87 -0.45,1.31 -0.13,1 -1.23,3.22 -2.18,4.41 -0.44,0.53 -1,1.56 -1.51,2.78 -1.14,2.7 -1.59,3.66 -2.07,4.21 -0.4,0.47 -1.1,1.47 -2.11,3.05 -0.26,0.43 -0.99,1.28 -1.58,1.88 -1.44,1.49 -1.82,2.06 -2.85,4.03 -0.5,0.93 -1.21,2 -1.59,2.41 l -0.67,0.75 0.11,1.81 c 0.13,2.14 0.36,3.33 0.87,4.21 0.46,0.81 0.57,1.31 0.75,4.67 0.09,1.68 0.22,3.12 0.41,3.87 0.36,1.45 0.57,2.87 0.57,4.14 0,0.82 -0.05,1.04 -0.49,1.66 -0.47,0.64 -0.51,0.76 -0.42,1.46 0.1,0.69 0.06,0.84 -0.37,1.51 -0.27,0.41 -0.56,1.09 -0.64,1.5 -0.09,0.42 -0.29,1.32 -0.45,2 l -0.3,1.24 -1.59,1.5 c -1.32,1.27 -1.81,1.64 -2.97,2.19 -0.76,0.36 -1.69,0.69 -2.07,0.75 -0.38,0.06 -0.93,0.26 -1.24,0.41 -0.33,0.17 -1.07,0.32 -1.84,0.38 -0.87,0.06 -1.46,0.18 -1.77,0.38 -0.84,0.52 -1.38,0.77 -2.26,0.94 -1.22,0.23 -2.54,1.14 -5.04,3.5 -1.16,1.09 -2.34,2.1 -2.63,2.25 -0.3,0.15 -1.01,0.71 -1.58,1.24 -0.58,0.54 -1.09,0.98 -1.17,0.98 -0.08,0 -1.06,0.9 -2.18,1.96 -1.13,1.06 -2.27,2.01 -2.52,2.14 -0.81,0.43 -2.26,1.68 -3.62,3.09 -1.15,1.2 -1.84,2.17 -2.59,3.65 -0.12,0.23 -0.74,0.89 -1.36,1.47 -1.56,1.46 -2.06,2.31 -2.22,3.83 -0.12,1.25 -0.17,1.41 -1.65,3.43 -0.19,0.26 -0.17,0.45 0.19,1.5 0.32,0.97 0.41,1.49 0.41,2.67 0,1.43 0,1.52 0.6,2.64 0.35,0.64 0.86,1.34 1.13,1.58 0.27,0.24 0.86,0.83 1.32,1.32 0.68,0.72 0.84,1.04 0.94,1.65 0.11,0.7 0.58,1.56 1.92,3.43 0.64,0.89 1.01,1.78 1.01,2.59 0,0.62 -0.17,1.06 -0.86,2.41 -0.47,0.9 -1.07,1.84 -1.32,2.07 -0.44,0.4 -0.53,0.42 -2.18,0.45 -2.58,0.05 -3.01,0.04 -4.52,-0.45 -0.76,-0.25 -1.69,-0.51 -2.07,-0.57 -0.51,-0.08 -0.82,-0.27 -1.35,-0.79 -0.7,-0.67 -0.93,-0.79 -2.71,-1.12 -1.3,-0.25 -1.61,-0.58 -2.07,-2.26 -0.14,-0.53 -0.32,-0.78 -1.13,-1.36 -1.36,-0.97 -2.5,-2.25 -2.63,-2.97 -0.06,-0.32 -0.23,-0.73 -0.38,-0.94 -0.51,-0.74 -1.43,-2.47 -1.43,-2.71 0,-0.13 -0.32,-0.68 -0.75,-1.24 -1.061,-1.4 -1.684,-2.82 -1.844,-4.18 -0.086,-0.73 -0.265,-1.36 -0.527,-1.8 -0.376,-0.65 -0.405,-0.78 -0.376,-2.71 0.025,-1.67 0.081,-2.09 0.301,-2.37 0.147,-0.19 0.378,-0.71 0.527,-1.17 0.36,-1.11 0.839,-1.85 1.769,-2.63 0.42,-0.36 0.95,-0.91 1.17,-1.24 0.23,-0.37 0.6,-0.69 0.94,-0.83 0.89,-0.37 3.98,-3.36 4.51,-4.37 0.25,-0.47 0.63,-1.06 0.87,-1.31 0.48,-0.53 2.46,-3.14 2.89,-3.84 0.16,-0.26 1.05,-1.24 1.96,-2.18 1.61,-1.67 1.95,-2.22 1.39,-2.22 -0.44,0 -1.21,0.53 -2.56,1.8 -2.98,2.82 -4.71,4.34 -5.71,5.01 -0.6,0.39 -1.49,1.02 -2,1.39 -0.51,0.36 -1.4,0.96 -1.99,1.32 -0.6,0.36 -1.46,0.9 -1.92,1.24 -0.467,0.33 -1.23,0.79 -1.695,1.01 -0.466,0.23 -1.129,0.64 -1.468,0.91 -1.092,0.86 -3.375,2.38 -4.402,2.93 -0.87,0.47 -3.787,2.65 -5.079,3.8 -0.539,0.48 -1.473,1.14 -2.07,1.47 -1.288,0.7 -2.986,2.42 -3.311,3.35 -0.118,0.34 -0.216,1.07 -0.226,1.62 -0.009,0.55 -0.128,1.41 -0.263,1.91 -0.135,0.51 -0.291,1.2 -0.339,1.51 -0.048,0.31 -0.314,0.83 -0.564,1.2 -0.255,0.38 -0.45,0.91 -0.452,1.17 -0.003,0.65 -0.58,2.76 -0.94,3.46 -0.425,0.83 -1.046,3.6 -1.091,4.82 -0.039,1.02 -0.037,1.07 0.489,1.46 0.294,0.23 0.842,0.67 1.204,1.02 0.652,0.63 0.64,0.67 0.639,1.73 0,0.86 -0.061,1.17 -0.338,1.58 -0.545,0.8 -1.08,1.12 -2.145,1.24 -1.335,0.16 -7.458,0.05 -8.089,-0.15 -0.75,-0.23 -1.706,-0.81 -2.634,-1.65 -0.752,-0.68 -0.845,-0.84 -1.129,-1.96 -0.169,-0.67 -0.473,-1.46 -0.677,-1.73 -0.245,-0.32 -0.395,-0.8 -0.489,-1.47 -0.079,-0.55 -0.22,-1.16 -0.301,-1.31 -0.082,-0.16 -0.204,-0.61 -0.264,-1.02 -0.06,-0.41 -0.156,-0.91 -0.225,-1.09 -0.07,-0.18 -0.333,-1.14 -0.565,-2.11 -0.418,-1.75 -0.681,-2.38 -1.354,-3.31 -0.21,-0.29 -0.409,-0.94 -0.527,-1.62 -0.287,-1.64 -0.733,-3.21 -1.167,-4.02 -0.45,-0.85 -0.878,-2.64 -1.016,-4.44 -0.054,-0.72 -0.124,-1.37 -0.188,-1.47 -0.063,-0.1 -0.01,-0.42 0.113,-0.72 0.269,-0.64 0.89,-1.01 2.709,-1.54 0.707,-0.2 1.55,-0.5 1.844,-0.68 0.294,-0.17 0.946,-0.39 1.467,-0.48 0.522,-0.1 1.651,-0.48 2.484,-0.83 1.126,-0.47 1.747,-0.62 2.445,-0.64 0.897,-0.03 0.983,-0.11 2.07,-0.98 1.654,-1.33 2.494,-1.87 3.273,-2.11 0.417,-0.12 1.13,-0.54 1.769,-1.09 0.582,-0.49 1.734,-1.47 2.558,-2.14 0.825,-0.68 2.204,-1.9 3.085,-2.71 0.882,-0.82 1.85,-1.59 2.145,-1.73 0.295,-0.14 0.527,-0.37 0.527,-0.49 0,-0.12 0.548,-0.64 1.204,-1.17 1.603,-1.29 4.218,-3.94 4.741,-4.78 0.639,-1.02 2.552,-3.06 4.252,-4.55 1.692,-1.48 3.96,-3.32 4.67,-3.76 0.45,-0.28 1.66,-1.23 3.16,-2.52 0.4,-0.36 0.89,-0.7 1.09,-0.76 0.19,-0.06 0.91,-0.5 1.58,-0.97 0.91,-0.65 1.27,-1.04 1.46,-1.51 0.15,-0.34 0.63,-0.96 1.06,-1.43 0.42,-0.46 0.95,-1.29 1.2,-1.84 0.33,-0.72 0.69,-1.2 1.24,-1.66 0.99,-0.83 1.28,-1.4 1.43,-3.08 0.12,-1.28 0.17,-1.47 0.87,-2.6 0.52,-0.84 1.57,-2.06 3.46,-3.99 2.06,-2.1 2.84,-3.01 3.2,-3.72 1.22,-2.42 2.8,-4.81 4.78,-7.19 2.4,-2.9 3.23,-4.13 3.23,-4.78 0,-0.5 -0.34,-2.39 -0.71,-4.06 -0.13,-0.55 -0.22,-1.25 -0.23,-1.54 0,-0.3 -0.1,-0.83 -0.22,-1.17 -0.23,-0.63 -0.35,-2.07 -0.45,-5.08 -0.04,-0.93 -0.08,-2.26 -0.12,-2.93 -0.04,-0.68 -0.1,-2.61 -0.11,-4.29 -0.01,-2.81 0.02,-3.11 0.3,-3.62 0.17,-0.3 0.6,-1.09 0.94,-1.76 1.23,-2.43 2.24,-4.12 3.09,-5.23 0.89,-1.18 1.99,-2.92 1.99,-3.13 0,-0.4 1.33,-2.06 2.22,-2.78 0.56,-0.45 1.37,-1.32 1.84,-2 0.47,-0.65 1.36,-1.67 2,-2.25 0.64,-0.59 1.47,-1.41 1.8,-1.85 0.34,-0.43 0.8,-1.01 1.06,-1.31 0.32,-0.38 0.59,-0.96 0.79,-1.77 0.4,-1.63 0.79,-2.49 1.47,-3.16 0.31,-0.32 0.74,-0.79 0.94,-1.06 0.19,-0.26 0.7,-0.67 1.12,-0.9 0.47,-0.25 0.8,-0.52 0.83,-0.71 0.09,-0.49 0.39,-3.81 0.53,-5.87 0.15,-2.16 0.25,-2.76 0.64,-3.95 0.16,-0.49 0.3,-1.07 0.3,-1.28 0,-0.24 0.27,-0.7 0.75,-1.25 0.43,-0.48 0.83,-1.12 0.91,-1.43 0.47,-1.96 0.69,-6.15 0.33,-6.58 -0.22,-0.27 -1.6,-0.91 -2.89,-1.35 -1.19,-0.41 -3.71,-1.53 -4.52,-2.04 -0.5,-0.31 -0.8,-0.35 -3.16,-0.41 -1.43,-0.04 -2.79,-0.14 -3.05,-0.23 -0.25,-0.08 -0.98,-0.31 -1.61,-0.48 -0.64,-0.18 -1.5,-0.52 -1.92,-0.76 -1.72,-0.95 -3.36,-1.19 -9.3,-1.31 -2.32,-0.05 -4.75,-0.13 -5.34,-0.19 -1.56,-0.16 -6.28,-0.14 -7.45,0.04 -0.59,0.08 -3.2,0.12 -6.4,0.07 -4.63,-0.08 -5.647,-0.16 -7.295,-0.45 -1.054,-0.19 -1.966,-0.37 -2.032,-0.42 -0.066,-0.04 -1.004,-0.17 -2.107,-0.3 -2.115,-0.23 -2.849,-0.44 -3.575,-1.05 -0.527,-0.44 -1.037,-0.62 -2.558,-0.86 -1.224,-0.2 -2.991,-0.98 -3.5,-1.55 -0.368,-0.41 -2.73,-2.41 -3.423,-2.89 -0.5,-0.36 -2.536,-0.95 -3.236,-0.95 -0.212,0 -0.725,-0.23 -1.129,-0.48 -0.674,-0.44 -0.759,-0.46 -1.129,-0.27 -0.221,0.12 -0.665,0.57 -0.978,0.98 -0.442,0.58 -0.761,0.83 -1.505,1.13 -0.949,0.38 -0.971,0.39 -1.58,0.11 -0.983,-0.44 -1.167,-0.75 -1.167,-1.92 v -1.01 l -0.602,-0.19 c -0.844,-0.28 -1.016,-0.47 -1.016,-1.09 0,-0.7 0.67,-1.32 2.747,-2.67 2.247,-1.47 2,-1.4 5.456,-1.47 3.651,-0.07 4.27,-0.01 4.929,0.56 0.271,0.24 0.818,0.62 1.241,0.83 0.424,0.22 1.024,0.64 1.317,0.94 0.293,0.31 0.778,0.63 1.091,0.72 0.651,0.17 2.068,0.04 3.086,-0.27 1.164,-0.35 1.897,-0.38 6.998,-0.45 5.337,-0.07 7.317,-0.2 8.277,-0.56 0.63,-0.24 1.4,-0.27 14.26,-0.34 3.3,-0.02 3.54,0 3.95,0.3 0.67,0.49 0.92,0.55 1.51,0.3 0.29,-0.12 0.67,-0.23 0.86,-0.22 6.9,0.09 10.86,0.13 15.05,0.15 h 5.16 l 1.13,-0.38 1.16,-0.41 4.67,0.03 4.66,0.08 0.91,-0.98 c 0.7,-0.72 1.27,-1.09 2.29,-1.58 0.74,-0.35 1.63,-0.67 2,-0.72 1.7,-0.19 4.72,0.77 5.64,1.81 1.05,1.19 1.38,1.39 2.56,1.39 0.98,0 1.23,-0.09 2.56,-0.75 0.8,-0.4 1.5,-0.82 1.54,-0.94 0.04,-0.12 -0.07,-0.75 -0.26,-1.43 -0.24,-0.81 -0.37,-1.68 -0.38,-2.52 -0.01,-1.13 0.04,-1.31 0.38,-1.77 0.43,-0.59 0.43,-0.95 0.15,-3.35 -0.12,-0.96 -0.15,-2.89 -0.12,-4.85 l 0.04,-3.24 0.6,-1.09 c 0.33,-0.59 0.78,-1.61 1.02,-2.26 0.57,-1.54 1.76,-3.23 3.05,-4.36 1.27,-1.12 1.79,-1.44 3.35,-1.99 1.1,-0.4 1.37,-0.45 3.12,-0.42 1.05,0.02 2.39,0.13 2.97,0.26 0.9,0.21 1.42,0.22 3.76,0.08 1.88,-0.12 3.24,-0.11 4.29,0 4.51,0.45 4.75,0.52 6.81,2.07 3.51,2.62 5.38,5.63 5.87,9.48 0.08,0.64 0.22,1.4 0.3,1.69 0.19,0.64 0.08,7.18 -0.15,8.92 -0.08,0.64 -0.25,1.5 -0.37,1.92 -0.12,0.42 -0.31,1.38 -0.42,2.15 -0.1,0.76 -0.29,1.79 -0.45,2.29 -0.31,0.99 -0.36,1.56 -0.15,1.69 0.08,0.05 0.58,-0.09 1.13,-0.34 0.55,-0.24 1.36,-0.5 1.81,-0.56 0.59,-0.08 0.97,-0.25 1.5,-0.68 0.4,-0.31 0.89,-0.66 1.05,-0.75 1,-0.51 4.75,-1.09 7,-1.09 0.88,0 2.27,-0.47 5.53,-1.88 0.81,-0.35 1.93,-0.78 2.52,-0.94 1.43,-0.4 2.14,-0.78 3.17,-1.66 0.46,-0.4 1.56,-1.17 2.4,-1.73 0.85,-0.56 2.2,-1.53 3.05,-2.11 1.95,-1.33 3.53,-2.16 5.34,-2.86 0.79,-0.3 1.93,-0.76 2.53,-1.01 0.59,-0.25 1.75,-0.68 2.59,-0.98 0.84,-0.3 1.73,-0.67 2,-0.83 0.26,-0.16 1.51,-0.8 2.78,-1.39 1.27,-0.59 2.68,-1.28 3.12,-1.54 0.44,-0.26 1.81,-0.84 3.01,-1.32 2.58,-1.02 3.46,-1.46 4.4,-2.14 1.03,-0.75 2.46,-1.47 3.24,-1.58 0.38,-0.06 1.14,-0.29 1.69,-0.53 0.55,-0.24 1.34,-0.5 1.73,-0.6 0.46,-0.12 1.03,-0.44 1.58,-0.91 0.48,-0.4 1.22,-0.9 1.66,-1.12 0.84,-0.43 2.4,-0.91 3.01,-0.91 0.55,0 1.46,-0.42 1.99,-0.94 0.35,-0.33 0.72,-0.51 1.36,-0.64 l 0.9,-0.19 0.12,-1.05 c 0.11,-1.37 0.19,-1.57 0.79,-1.77 0.19,-0.06 0.57,-0.11 1.01,-0.11 z"
         id="path3199"
         inkscape:connector-curvature="0" />
    </g>
    <text
       xml:space="preserve"
       style="font-style:normal;font-weight:normal;font-size:14.11111069px;line-height:1.25;font-family:sans-serif;letter-spacing:0px;word-spacing:0px;fill:#000000;fill-opacity:1;stroke:none;stroke-width:0.26458332"
       x="29.633333"
       y="31.143528"
       id="text3753"><tspan
         sodipodi:role="line"
         id="tspan3751"
         x="29.633333"
         y="31.143528"
         style="font-size:14.11111069px;line-height:1.25;stroke-width:0.26458332">ALLEZ</tspan></text>
  </g>
</svg>
